<?xml version="1.0" encoding="UTF-8" standalone="no"?>
<!-- Created with Inkscape (http://www.inkscape.org/) -->

<svg
   width="195.32812mm"
   height="195.32812mm"
   viewBox="0 0 195.32812 195.32812"
   version="1.1"
   id="svg5"
   inkscape:version="1.2 (dc2aedaf03, 2022-05-15)"
   sodipodi:docname="logo.svg"
   inkscape:export-filename="logo_128.png"
   inkscape:export-xdpi="16.644812"
   inkscape:export-ydpi="16.644812"
   xmlns:inkscape="http://www.inkscape.org/namespaces/inkscape"
   xmlns:sodipodi="http://sodipodi.sourceforge.net/DTD/sodipodi-0.dtd"
   xmlns="http://www.w3.org/2000/svg"
   xmlns:svg="http://www.w3.org/2000/svg">
  <sodipodi:namedview
     id="namedview7"
     pagecolor="#ffffff"
     bordercolor="#000000"
     borderopacity="0.25"
     inkscape:showpageshadow="2"
     inkscape:pageopacity="0.0"
     inkscape:pagecheckerboard="0"
     inkscape:deskcolor="#d1d1d1"
     inkscape:document-units="mm"
     showgrid="false"
     inkscape:zoom="0.90509668"
     inkscape:cx="198.32136"
     inkscape:cy="397.19514"
     inkscape:window-width="1920"
     inkscape:window-height="1015"
     inkscape:window-x="1920"
     inkscape:window-y="36"
     inkscape:window-maximized="1"
     inkscape:current-layer="layer1" />
  <defs
     id="defs2">
    <inkscape:path-effect
       effect="powerstroke"
       id="path-effect3140"
       is_visible="true"
       lpeversion="1"
       offset_points="3,0"
       not_jump="false"
       sort_points="true"
       interpolator_type="CubicBezierJohan"
       interpolator_beta="0.2"
       start_linecap_type="zerowidth"
       linejoin_type="extrp_arc"
       miter_limit="4"
       scale_width="1"
       end_linecap_type="zerowidth" />
  </defs>
  <g
     inkscape:label="Layer 1"
     inkscape:groupmode="layer"
     id="layer1"
     transform="translate(-11.238281,-30.525391)">
    <path
       style="color:#000000;fill:#000000;-inkscape-stroke:none"
       d="m 108.90234,30.525391 c -53.858772,0 -97.664059,43.805286 -97.664059,97.664059 0,53.85878 43.805287,97.66407 97.664059,97.66407 53.85878,0 97.66407,-43.80529 97.66407,-97.66407 0,-53.858773 -43.80529,-97.664059 -97.66407,-97.664059 z m 0,13.433593 c 46.59895,0 84.23047,37.631526 84.23047,84.230466 0,46.59895 -37.63152,84.23047 -84.23047,84.23047 -46.59894,0 -84.232418,-37.63152 -84.232418,-84.23047 0,-46.59894 37.633478,-84.230466 84.232418,-84.230466 z"
       id="path2592" />
    <path
       style="color:#000000;fill:#000000;-inkscape-stroke:none"
       d="m 8.9863281,105.29688 v 96.92578 l 83.9394529,-48.46289 -7.699219,-4.44532 z m 10.2656249,17.78125 53.142578,30.68164 -53.142578,30.68164 z"
       id="path2646"
       transform="matrix(1.3085265,0,0,1.3085265,56.033246,-73.00885)" />
    <path
       style="fill:#ffffff;stroke:#000000;stroke-width:5.46616"
       d="M 345.13114,686.08528 C 222.64086,675.79533 119.51392,599.94853 74.016249,486.68834 64.419992,462.79978 58.296197,439.49115 53.966274,410.37335 51.203358,391.79333 51.205528,346.25661 53.970219,327.58931 61.4703,276.94849 77.618278,233.84988 103.92601,194.25835 143.90493,134.09253 200.40964,90.698198 268.39759,67.947933 322.37862,49.884696 378.75198,46.533168 433.87378,58.109989 c 82.82951,17.396066 153.43381,65.362801 200.69115,136.344371 10.701,16.07314 25.83502,46.00531 32.67962,64.63398 6.70243,18.2417 13.10531,43.27443 16.2797,63.64715 2.0974,13.46078 2.48648,20.4825 2.53407,45.73343 0.0589,31.24975 -0.58565,38.59247 -5.57665,63.52913 -26.7791,133.797 -136.64661,235.61462 -272.39375,252.43569 -17.24628,2.13707 -47.67501,2.9353 -62.95678,1.65154 z M 422.60679,489.0315 C 535.93722,423.59631 628.78214,369.70078 628.92885,369.26367 629.20612,368.43746 217.06471,130.09256 214.27041,129.46316 c -1.37426,-0.30954 -1.58595,31.67289 -1.58595,239.60604 0,227.99566 0.0965,239.93763 1.9335,239.44933 1.06342,-0.28267 94.65839,-54.05183 207.98883,-119.48703 z"
       id="path374"
       transform="matrix(0.26458333,0,0,0.26458333,11.238281,30.525391)" />
  </g>
</svg>
