<svg xmlns="http://www.w3.org/2000/svg" width="738.248" height="738.248" viewBox="0 0 195.328 195.328"><path d="M108.902 30.525c-53.858 0-97.664 43.806-97.664 97.664 0 53.86 43.806 97.665 97.664 97.665 53.86 0 97.664-43.806 97.664-97.665 0-53.858-43.805-97.664-97.664-97.664zm0 13.434c46.6 0 84.23 37.632 84.23 84.23 0 46.6-37.63 84.23-84.23 84.23-46.599 0-84.232-37.63-84.232-84.23 0-46.598 37.633-84.23 84.232-84.23z" style="color:#000;fill:#000;-inkscape-stroke:none" transform="translate(-11.238 -30.525)"/><path d="M8.986 105.297v96.926l83.94-48.463-7.7-4.446zm10.266 17.781 53.143 30.682-53.143 30.681z" style="color:#000;fill:#000;-inkscape-stroke:none" transform="matrix(1.30853 0 0 1.30853 44.795 -103.534)"/><path d="M345.131 686.085c-122.49-10.29-225.617-86.136-271.115-199.397-9.596-23.888-15.72-47.197-20.05-76.315-2.763-18.58-2.76-64.116.004-82.784 7.5-50.64 23.648-93.74 49.956-133.33 39.979-60.166 96.484-103.56 164.472-126.311 53.98-18.063 110.354-21.415 165.476-9.838 82.83 17.396 153.434 65.363 200.69 136.344 10.702 16.073 25.836 46.006 32.68 64.634 6.703 18.242 13.106 43.275 16.28 63.647 2.098 13.461 2.487 20.483 2.534 45.734.06 31.25-.585 38.592-5.576 63.53-26.78 133.796-136.647 235.614-272.394 252.435-17.246 2.137-47.675 2.935-62.957 1.651zm77.476-197.054c113.33-65.435 206.175-119.33 206.322-119.767.277-.827-411.864-239.171-414.659-239.8-1.374-.31-1.586 31.672-1.586 239.605 0 227.996.097 239.938 1.934 239.45 1.063-.283 94.658-54.052 207.989-119.487z" style="fill:gray;stroke:#000;stroke-width:5.46616" transform="scale(.26458)"/></svg>